HIERARCHY
ROOT ui
{
	 OFFSET 0 0 0
	 CHANNELS 3 XPosition YPosition Z Position
	 EndSite
	 {
	 OFFSET 0 -1 0
	 }
}
ROOT li
{
	 OFFSET 0 0 0
	 CHANNELS 3 XPosition YPosition Z Position
	 EndSite
	 {
	 OFFSET 0 -1 0
	 }
}
ROOT ul
{
	 OFFSET 0 0 0
	 CHANNELS 3 XPosition YPosition Z Position
	 EndSite
	 {
	 OFFSET 0 -1 0
	 }
}
ROOT ll
{
	 OFFSET 0 0 0
	 CHANNELS 3 XPosition YPosition Z Position
	 EndSite
	 {
	 OFFSET 0 -1 0
	 }
}
ROOT tt
{
	 OFFSET 0 0 0
	 CHANNELS 3 XPosition YPosition Z Position
	 EndSite
	 {
	 OFFSET 0 -1 0
	 }
}
ROOT tb
{
	 OFFSET 0 0 0
	 CHANNELS 3 XPosition YPosition Z Position
	 EndSite
	 {
	 OFFSET 0 -1 0
	 }
}
ROOT td
{
	 OFFSET 0 0 0
	 CHANNELS 3 XPosition YPosition Z Position
	 EndSite
	 {
	 OFFSET 0 -1 0
	 }
}
ROOT v
{
	 OFFSET 0 0 0
	 CHANNELS 3 XPosition YPosition Z Position
	 EndSite
	 {
	 OFFSET 0 -1 0
	 }
}
ROOT bn
{
	 OFFSET 0 0 0
	 CHANNELS 3 XPosition YPosition Z Position
	 EndSite
	 {
	 OFFSET 0 -1 0
	 }
}
MOTION
Frames: 16
Frame Time: 0.002
0.01837788772583008	-0.0064814119338989255	0		0.6291939086914062	-2.604755126953125	0		-0.9830242309570313	0.24528788757324219	0		-0.41122683715820313	-2.829462890625	0		1.2634815673828126	-0.6878848876953125	0		2.82296044921875	-0.6668402709960938	0		4.21378857421875	-0.21326605224609374	0		5.89254296875	0.2058853759765625	0		-0.2562556762695313	5.930205078125	0		
0.02267443084716797	-0.0022202908992767336	0		0.6292973022460937	-2.604466064453125	0		-0.9727891845703125	0.24451275634765626	0		-0.36834661865234375	-2.843753662109375	0		1.249025634765625	-0.6644096069335937	0		2.849777099609375	-0.6930608520507813	0		4.21586767578125	-0.22319102478027344	0		5.896369140625	0.22135386657714845	0		-0.12142962646484375	5.94855810546875	0		
-0.055081283569335934	2.457730025053024E-4	0		0.635499755859375	-2.597273681640625	0		-0.9585286865234375	0.24666177368164063	0		-0.38115322875976565	-2.8362333984375	0		1.2903297119140624	-0.65676513671875	0		2.859157470703125	-0.6800174560546876	0		4.223240234375	-0.21218154907226563	0		5.908541015625	0.20368136596679687	0		-0.23712557983398438	5.936595703125	0		
0.0230856990814209	-0.0016114280223846437	0		0.6813850708007813	-2.6106826171875	0		-0.97828125	0.2502976684570313	0		-0.35830490112304686	-2.85125830078125	0		1.306803466796875	-0.6357587280273438	0		2.855097412109375	-0.6947743530273438	0		4.2173037109375	-0.21996563720703124	0		5.90867333984375	0.20377816772460938	0		-0.2537930908203125	5.930158203125	0		
-0.054741371154785154	8.363379836082459E-4	0		0.6295372924804687	-2.60364599609375	0		-0.9781229858398437	0.2506190643310547	0		-0.36535986328125	-2.857853759765625	0		1.2991844482421875	-0.6184009399414062	0		2.87120556640625	-0.695826904296875	0		4.22232568359375	-0.22790171813964843	0		5.90511474609375	0.18847222900390626	0		-0.2875044860839844	5.9259609375	0		
0.019277807235717773	-0.004992911815643311	0		0.6534854125976562	-2.6087490234375	0		-0.9712233276367187	0.2368179931640625	0		-0.3684012756347656	-2.861524658203125	0		1.3403980712890624	-0.6097789916992188	0		2.870137939453125	-0.7056221923828125	0		4.2104375	-0.2265738067626953	0		5.889505859375	0.19094146728515626	0		-0.25217237854003904	5.9297197265625	0		
-0.054586872100830075	0.0013711049556732178	0		0.6295554809570313	-2.60314697265625	0		-1.040097900390625	0.24213009643554687	0		-0.35755023193359375	-2.8704208984375	0		1.4396795654296874	-0.59403271484375	0		2.88027783203125	-0.6985794677734375	0		4.2212294921875	-0.24357408142089843	0		5.89320263671875	0.2065942687988281	0		-0.2709071044921875	5.93526806640625	0		
0.023394397735595703	-5.508249998092651E-4	0		0.6595458374023437	-2.60136181640625	0		-0.9620380859375	0.24522317504882812	0		-0.3905420532226562	-2.866677490234375	0		1.4378250732421876	-0.5837823486328125	0		2.894955810546875	-0.719602783203125	0		4.22531982421875	-0.23745697021484374	0		5.89846435546875	0.24991958618164062	0		-0.10440797424316406	5.961029296875	0		
0.0233569278717041	-3.211930096149445E-4	0		0.62946044921875	-2.60268798828125	0		-0.9561490478515625	0.24037161254882813	0		-0.3596813659667969	-2.871907958984375	0		1.43778271484375	-0.5835643310546875	0		2.912955322265625	-0.71666650390625	0		4.23016015625	-0.24533576965332032	0		5.89548828125	0.23476872253417969	0		-0.23575619506835938	5.93822412109375	0		
0.019221832275390625	-0.004045423984527588	0		0.68128759765625	-2.609250732421875	0		-0.9612838745117187	0.23666294860839843	0		-0.39473983764648435	-2.87016845703125	0		1.423037841796875	-0.5611276245117187	0		2.9228330078125	-0.7196022338867187	0		4.23594873046875	-0.2542117156982422	0		5.89543408203125	0.23513525390625	0		-0.25096131896972657	5.92966552734375	0		
-0.057852294921875	-6.916080117225647E-4	0		0.628258056640625	-2.604251953125	0		-1.035389892578125	0.23796556091308593	0		-0.3608821716308594	-2.87347802734375	0		1.4229288330078125	-0.5609166870117187	0		2.92272509765625	-0.7193812866210938	0		4.24171728515625	-0.2620709533691406	0		5.90020751953125	0.212883056640625	0		-0.25209841918945314	5.9308798828125	0		
0.018960231781005858	-0.0036551029682159422	0		0.63120361328125	-2.600100341796875	0		-1.0164395141601563	0.24485519409179687	0		-0.4021075134277344	-2.880680419921875	0		1.4288914794921874	-0.553799560546875	0		2.905438232421875	-0.728898193359375	0		4.22654345703125	-0.2636008911132813	0		5.9037646484375	0.22878561401367187	0		-0.11804312133789062	5.94905908203125	0		
-0.04398970413208008	0.012461132049560546	0		0.6351475830078125	-2.5949716796875	0		-1.0166253051757812	0.24501205444335938	0		-0.3652214660644531	-2.880064208984375	0		1.4317806396484376	-0.5496401977539063	0		2.940566162109375	-0.7091896362304687	0		4.2353369140625	-0.26547576904296877	0		5.90591455078125	0.2517012786865234	0		-0.24966925048828126	5.9281923828125	0		
0.022633563995361327	6.282939910888672E-4	0		0.6309319458007813	-2.59972998046875	0		-1.0168363037109376	0.24515313720703125	0		-0.4152610168457031	-2.873162353515625	0		1.39510009765625	-0.514891357421875	0		2.927201171875	-0.7207566528320313	0		4.22925830078125	-0.25711773681640626	0		5.8984365234375	0.2196302490234375	0		-0.2661664733886719	5.918591796875	0		
-0.0555604248046875	0.002944628953933716	0		0.628757568359375	-2.60152734375	0		-0.9562459716796875	0.2323733673095703	0		-0.3525539855957031	-2.883955322265625	0		1.391837890625	-0.5186522216796875	0		2.943001953125	-0.7207578735351563	0		4.23083935546875	-0.2708726806640625	0		5.898283203125	0.2201842041015625	0		-0.2665493774414063	5.9187392578125	0		
0.01814202880859375	-0.003012242078781128	0		0.6286209106445313	-2.601364990234375	0		-1.0304449462890626	0.23458665466308593	0		-0.4097352600097656	-2.886975830078125	0		1.394697509765625	-0.5145120239257812	0		2.951748291015625	-0.7246591796875	0		4.22760302734375	-0.27255718994140626	0		5.89813232421875	0.22073995971679689	0		-0.2669427185058594	5.91887451171875	0		
